<?xml version="1.0" standalone="no"?><!DOCTYPE svg PUBLIC "-//W3C//DTD SVG 1.1//EN" "http://www.w3.org/Graphics/SVG/1.1/DTD/svg11.dtd"><svg t="1540705931575" class="icon" style="" viewBox="0 0 1024 1024" version="1.1" xmlns="http://www.w3.org/2000/svg" p-id="7826" xmlns:xlink="http://www.w3.org/1999/xlink" width="200" height="200"><defs><style type="text/css"></style></defs><path d="M745.017 939.198c-7.767 0-15.535 0-23.302-7.768L535.302 807.155l-93.207 93.206c-7.767 7.768-31.069 15.535-38.836 7.768-15.535-7.768-23.302-23.302-23.302-38.836v-170.88c0-7.767 0-15.534 7.767-23.301L682.88 356.655c15.535-15.534 38.836-15.534 54.37 0 15.535 15.535 15.535 38.837 0 54.371l-287.387 310.69v62.137l54.37-46.603c15.535-15.535 31.07-15.535 46.604-7.768l170.88 108.742 132.042-644.68L201.311 512l147.577 93.207c15.535 7.767 23.302 38.836 7.767 54.37-7.767 15.535-38.836 23.302-54.37 15.535L100.337 543.069C92.57 535.302 84.802 527.534 84.802 512c0-15.534 7.768-23.302 23.302-31.069L884.827 92.57c15.534-7.768 31.069-7.768 38.836 0 15.535 7.767 15.535 23.301 15.535 38.836L783.853 908.129c0 15.534-7.767 23.301-23.302 31.069h-15.534z" p-id="7827"></path></svg>